<?xml version="1.0" encoding="utf-8"?>
<!-- Generator: Adobe Illustrator 15.1.0, SVG Export Plug-In . SVG Version: 6.00 Build 0)  -->
<!DOCTYPE svg PUBLIC "-//W3C//DTD SVG 1.1//EN" "http://www.w3.org/Graphics/SVG/1.1/DTD/svg11.dtd">
<svg version="1.1" id="Layer_1" xmlns="http://www.w3.org/2000/svg" xmlns:xlink="http://www.w3.org/1999/xlink" x="0px" y="0px"
	 width="720px" height="720px" viewBox="0 0 720 720" enable-background="new 0 0 720 720" xml:space="preserve">
<linearGradient id="SVGID_1_" gradientUnits="userSpaceOnUse" x1="117.3574" y1="598.3262" x2="676.824" y2="111.8335">
	<stop  offset="0.1264" style="stop-color:#CCB42D"/>
	<stop  offset="1" style="stop-color:#A17C2D"/>
</linearGradient>
<ellipse fill-rule="evenodd" clip-rule="evenodd" fill="url(#SVGID_1_)" cx="366.022" cy="382.095" rx="309.694" ry="307.654"/>
<linearGradient id="SVGID_2_" gradientUnits="userSpaceOnUse" x1="114.3652" y1="581.0293" x2="654.1611" y2="111.6417">
	<stop  offset="0.0402" style="stop-color:#F8EE55"/>
	<stop  offset="0.3448" style="stop-color:#FBF39B"/>
	<stop  offset="0.5172" style="stop-color:#FBF4A1"/>
	<stop  offset="0.5175" style="stop-color:#FBF49F"/>
	<stop  offset="0.5192" style="stop-color:#FAF39A"/>
	<stop  offset="0.523" style="stop-color:#FAF398"/>
	<stop  offset="0.7759" style="stop-color:#F7EC57"/>
	<stop  offset="0.977" style="stop-color:#A17C2D"/>
</linearGradient>
<circle fill-rule="evenodd" clip-rule="evenodd" fill="url(#SVGID_2_)" cx="354.288" cy="372.401" r="297.959"/>
<linearGradient id="SVGID_3_" gradientUnits="userSpaceOnUse" x1="158.8335" y1="539.8887" x2="599.7283" y2="156.5019">
	<stop  offset="0.1264" style="stop-color:#CCB42D"/>
	<stop  offset="1" style="stop-color:#A17C2D"/>
</linearGradient>
<circle fill-rule="evenodd" clip-rule="evenodd" fill="url(#SVGID_3_)" cx="354.797" cy="369.484" r="243.368"/>
<linearGradient id="SVGID_4_" gradientUnits="userSpaceOnUse" x1="182.0029" y1="546.1426" x2="599.645" y2="182.9756">
	<stop  offset="0" style="stop-color:#8A5A24"/>
	<stop  offset="0.1609" style="stop-color:#CCB42D"/>
	<stop  offset="0.2874" style="stop-color:#F8EE55"/>
	<stop  offset="0.4253" style="stop-color:#FBF4A1"/>
	<stop  offset="0.4486" style="stop-color:#FAF291"/>
	<stop  offset="0.4826" style="stop-color:#F9F07E"/>
	<stop  offset="0.5219" style="stop-color:#F8EE6E"/>
	<stop  offset="0.5691" style="stop-color:#F7ED61"/>
	<stop  offset="0.632" style="stop-color:#F7ED59"/>
	<stop  offset="0.7759" style="stop-color:#F7EC57"/>
	<stop  offset="1" style="stop-color:#A17C2D"/>
</linearGradient>
<circle fill-rule="evenodd" clip-rule="evenodd" fill="url(#SVGID_4_)" cx="367.632" cy="384.727" r="230.533"/>
<g>
	<linearGradient id="SVGID_5_" gradientUnits="userSpaceOnUse" x1="539.126" y1="285.0029" x2="210.7821" y2="315.9189">
		<stop  offset="0.1264" style="stop-color:#CCB42D"/>
		<stop  offset="0.408" style="stop-color:#A17C2D"/>
	</linearGradient>
	<path fill-rule="evenodd" clip-rule="evenodd" fill="url(#SVGID_5_)" d="M431.729,363.694c5.045-36.884,2.418-68.714-19-87
		c-33.195-28.342-105.037-18.735-119,21c-10.008,28.481-1.408,69.658,3,102c-11.293-5.295-51.483-35.657-59-45
		c-22.893-28.453-20.94-76.727,0-103c28.082-35.234,96.564-50.318,151-28c25.785,10.571,55.961,35.434,67,60
		C473.529,323.306,440.65,354.879,431.729,363.694z"/>
	<linearGradient id="SVGID_6_" gradientUnits="userSpaceOnUse" x1="543.6357" y1="338.665" x2="219.0572" y2="369.2264">
		<stop  offset="0.1264" style="stop-color:#CCB42D"/>
		<stop  offset="0.408" style="stop-color:#A17C2D"/>
	</linearGradient>
	<path fill-rule="evenodd" clip-rule="evenodd" fill="url(#SVGID_6_)" d="M391.729,215.694c38.43-3.819,74.756,0.969,92,22
		c16.695,20.361,32.223,64.869,21,98c-3.279,9.685-45.473,44.955-56,53c-26.549,20.287-77.48,62.461-83,104
		c-7.264-46.866-43.225-64.671-52.012-84.155c-6.207-13.762-10.465-35.056-8.987-56.845c3.337-1.142,9.098,4.36,14,8
		c4.431,3.29,8.801,7.876,14,11c43.933,26.397,112.693,10.53,133-26C480.576,317.984,494.838,255.119,391.729,215.694z"/>
	<linearGradient id="SVGID_7_" gradientUnits="userSpaceOnUse" x1="540.2539" y1="306.4111" x2="213.0541" y2="337.2193">
		<stop  offset="0.1264" style="stop-color:#CCB42D"/>
		<stop  offset="0.408" style="stop-color:#A17C2D"/>
	</linearGradient>
	<path fill-rule="evenodd" clip-rule="evenodd" fill="url(#SVGID_7_)" d="M341.729,325.694c6.093,15.784,27.341,23.499,47,18
		c15.004-4.197,21.781-19.779,26-33c5.689,4.55,4.705,45.989,4,57c-31.506,11.732-64.348,7.188-87-9
		c-15.632-11.171-32.174-23.149-31-47c1.064-21.62,27.132-38.536,51-41c22.05-2.277,57.88,6.447,56.81,23.845
		C405.039,351.361,357.776,340.197,341.729,325.694z"/>
	<linearGradient id="SVGID_8_" gradientUnits="userSpaceOnUse" x1="548.2754" y1="427.7119" x2="224.4468" y2="458.2027">
		<stop  offset="0.1264" style="stop-color:#CCB42D"/>
		<stop  offset="0.408" style="stop-color:#A17C2D"/>
	</linearGradient>
	<path fill-rule="evenodd" clip-rule="evenodd" fill="url(#SVGID_8_)" d="M229.549,366.988
		c20.89,13.555,42.916,27.512,66.056,47.943c33.368,29.462,64.991,54.336,61.125,120.763c-36.748,11.571-96.222-39.866-103-48
		C228.915,457.918,226.636,420.953,229.549,366.988z"/>
	<linearGradient id="SVGID_9_" gradientUnits="userSpaceOnUse" x1="558.0947" y1="443.2207" x2="223.2971" y2="474.7443">
		<stop  offset="0.1264" style="stop-color:#CCB42D"/>
		<stop  offset="0.408" style="stop-color:#A17C2D"/>
	</linearGradient>
	<path fill-rule="evenodd" clip-rule="evenodd" fill="url(#SVGID_9_)" d="M373.729,536.694
		c-0.35-65.296,30.139-93.092,61.445-120.697c24.141-21.286,47.84-33.882,69.252-49.009c0.852-0.185-3.17,76.959-16.697,103.706
		c-10.35,20.464-37.58,45.737-57,58C417.814,536.849,395.006,544.175,373.729,536.694z"/>
</g>
<path fill-rule="evenodd" clip-rule="evenodd" fill="none" d="M80.783,409.997c0,3.196,38.354,242.908,261.027,247.17
	s300.448-174.729,294.055-259.962"/>
<text transform="matrix(0.2987 0.9543 -0.9543 0.2987 89.0078 445.3936)"><tspan x="0" y="0" font-family="'Nyala-Regular'" font-size="51"> </tspan><tspan x="12.61" y="-0.011" font-family="'Nyala-Regular'" font-size="51" rotate="-1.879"> </tspan><tspan x="25.237" y="-0.436" font-family="'Nyala-Regular'" font-size="51" rotate="-3.755"> </tspan><tspan x="37.821" y="-1.272" font-family="'Nyala-Regular'" font-size="51" rotate="-5.653"> </tspan><tspan x="50.392" y="-2.527" font-family="'Nyala-Regular'" font-size="51" rotate="-7.602"> </tspan><tspan x="62.952" y="-4.215" font-family="'Nyala-Regular'" font-size="51" rotate="-9.62"> </tspan><tspan x="75.47" y="-6.349" font-family="'Nyala-Regular'" font-size="51" rotate="-11.719"> </tspan><tspan x="87.919" y="-8.944" font-family="'Nyala-Regular'" font-size="51" rotate="-13.908"> </tspan><tspan x="100.314" y="-12.029" font-family="'Nyala-Regular'" font-size="51" rotate="-16.204"> </tspan><tspan x="112.614" y="-15.619" font-family="'Nyala-Regular'" font-size="51" rotate="-18.612"> </tspan><tspan x="124.778" y="-19.735" font-family="'Nyala-Regular'" font-size="51" rotate="-21.135"> </tspan><tspan x="136.804" y="-24.404" font-family="'Nyala-Regular'" font-size="51" rotate="-23.781"> </tspan><tspan x="148.612" y="-29.631" font-family="'Nyala-Regular'" font-size="51" rotate="-26.542"> </tspan><tspan x="160.208" y="-35.45" font-family="'Nyala-Regular'" font-size="51" rotate="-29.423"> </tspan><tspan x="171.546" y="-41.874" font-family="'Nyala-Regular'" font-size="51" rotate="-32.418"> </tspan><tspan x="182.533" y="-48.884" font-family="'Nyala-Regular'" font-size="51" rotate="-35.499"> </tspan><tspan x="193.157" y="-56.5" fill="#91732C" font-family="'Nyala-Regular'" font-size="51" rotate="-38.66"> </tspan><tspan x="203.385" y="-64.724" fill="#91732C" font-family="'Nyala-Regular'" font-size="51" rotate="-41.883"> </tspan><tspan x="213.117" y="-73.492" fill="#91732C" font-family="'Nyala-Regular'" font-size="51" rotate="-45.122"> </tspan><tspan x="223.148" y="-83.15" fill="#91732C" font-family="'Nyala-Regular'" font-size="51" rotate="-50.571">A</tspan><tspan x="242.851" y="-107.287" fill="#91732C" font-family="'Nyala-Regular'" font-size="51" rotate="-58.332">G</tspan><tspan x="259.784" y="-135.763" fill="#91732C" font-family="'Nyala-Regular'" font-size="51" rotate="-63.557"> </tspan><tspan x="265.991" y="-147.767" fill="#91732C" font-family="'Nyala-Regular'" font-size="51" rotate="-67.887">R</tspan><tspan x="276.449" y="-174.197" fill="#91732C" font-family="'Nyala-Regular'" font-size="51" rotate="-72.457">I</tspan><tspan x="280.747" y="-186.958" fill="#91732C" font-family="'Nyala-Regular'" font-size="51" rotate="-74.869">T</tspan><tspan x="287.91" y="-214.368" fill="#91732C" font-family="'Nyala-Regular'" font-size="51" rotate="-78.115"> </tspan><tspan x="290.959" y="-227.396" fill="#91732C" font-family="'Nyala-Regular'" font-size="51" rotate="-82.039">H</tspan><tspan x="295.477" y="-260.94" fill="#91732C" font-family="'Nyala-Regular'" font-size="51" rotate="-87.937">A</tspan><tspan x="296.505" y="-291.513" fill="#91732C" font-family="'Nyala-Regular'" font-size="51" rotate="-94.114">C</tspan><tspan x="294.061" y="-323.108" fill="#91732C" font-family="'Nyala-Regular'" font-size="51" rotate="-100.565">K</tspan><tspan x="288.358" y="-351.632" fill="#91732C" font-family="'Nyala-Regular'" font-size="51" rotate="-105.188"> </tspan></text>
<linearGradient id="SVGID_10_" gradientUnits="userSpaceOnUse" x1="-596.0698" y1="608.8252" x2="-36.6032" y2="122.3325">
	<stop  offset="0.1379" style="stop-color:#ADADAD"/>
	<stop  offset="1" style="stop-color:#646464"/>
</linearGradient>
<ellipse fill-rule="evenodd" clip-rule="evenodd" fill="url(#SVGID_10_)" cx="-347.405" cy="392.594" rx="309.694" ry="307.654"/>
<linearGradient id="SVGID_11_" gradientUnits="userSpaceOnUse" x1="-831.7515" y1="372.1396" x2="101.2739" y2="393.3867">
	<stop  offset="0" style="stop-color:#292929"/>
	<stop  offset="0.1552" style="stop-color:#ADADAD"/>
	<stop  offset="0.3678" style="stop-color:#E5E5E5"/>
	<stop  offset="0.4713" style="stop-color:#F0F0F0"/>
	<stop  offset="0.4812" style="stop-color:#EDEDED"/>
	<stop  offset="0.5324" style="stop-color:#E6E6E6"/>
	<stop  offset="0.6494" style="stop-color:#E4E4E4"/>
	<stop  offset="1" style="stop-color:#646464"/>
</linearGradient>
<circle fill-rule="evenodd" clip-rule="evenodd" fill="url(#SVGID_11_)" cx="-359.14" cy="382.9" r="297.959"/>
<linearGradient id="SVGID_12_" gradientUnits="userSpaceOnUse" x1="-129.5151" y1="378.7324" x2="-805.7275" y2="382.4278">
	<stop  offset="0.1379" style="stop-color:#ADADAD"/>
	<stop  offset="1" style="stop-color:#424242"/>
</linearGradient>
<circle fill-rule="evenodd" clip-rule="evenodd" fill="url(#SVGID_12_)" cx="-358.63" cy="379.983" r="243.368"/>
<linearGradient id="SVGID_13_" gradientUnits="userSpaceOnUse" x1="-532.3477" y1="560.3369" x2="-114.7055" y2="197.1699">
	<stop  offset="0" style="stop-color:#292929"/>
	<stop  offset="0.0029" style="stop-color:#2F2F2F"/>
	<stop  offset="0.0251" style="stop-color:#555555"/>
	<stop  offset="0.0481" style="stop-color:#757575"/>
	<stop  offset="0.0719" style="stop-color:#8E8E8E"/>
	<stop  offset="0.0968" style="stop-color:#9F9F9F"/>
	<stop  offset="0.1235" style="stop-color:#AAAAAA"/>
	<stop  offset="0.1552" style="stop-color:#ADADAD"/>
	<stop  offset="0.3678" style="stop-color:#E5E5E5"/>
	<stop  offset="0.4713" style="stop-color:#F0F0F0"/>
	<stop  offset="0.4812" style="stop-color:#EDEDED"/>
	<stop  offset="0.5324" style="stop-color:#E6E6E6"/>
	<stop  offset="0.6494" style="stop-color:#E4E4E4"/>
	<stop  offset="1" style="stop-color:#646464"/>
</linearGradient>
<circle fill-rule="evenodd" clip-rule="evenodd" fill="url(#SVGID_13_)" cx="-346.719" cy="398.921" r="230.533"/>
<g>
	<linearGradient id="SVGID_14_" gradientUnits="userSpaceOnUse" x1="-501.5308" y1="315.5327" x2="-161.5771" y2="320.1509">
		<stop  offset="0.069" style="stop-color:#424242"/>
		<stop  offset="1" style="stop-color:#878787"/>
	</linearGradient>
	<path fill-rule="evenodd" clip-rule="evenodd" fill="url(#SVGID_14_)" d="M-281.699,374.193c5.045-36.884,2.418-68.714-19-87
		c-33.195-28.342-105.037-18.735-119,21c-10.008,28.481-1.408,69.658,3,102c-11.293-5.295-51.483-35.657-59-45
		c-22.893-28.453-20.94-76.727,0-103c28.082-35.234,96.564-50.318,151-28c25.785,10.571,55.961,35.434,67,60
		C-239.898,333.805-272.777,365.378-281.699,374.193z"/>
	<linearGradient id="SVGID_15_" gradientUnits="userSpaceOnUse" x1="-502.1572" y1="361.6533" x2="-162.2036" y2="366.2715">
		<stop  offset="0.069" style="stop-color:#424242"/>
		<stop  offset="1" style="stop-color:#878787"/>
	</linearGradient>
	<path fill-rule="evenodd" clip-rule="evenodd" fill="url(#SVGID_15_)" d="M-321.699,226.193c38.43-3.819,74.756,0.969,92,22
		c16.695,20.361,32.223,64.869,21,98c-3.279,9.685-45.473,44.955-56,53c-26.549,20.287-77.48,62.461-83,104
		c-7.264-46.866-43.225-64.671-52.012-84.155c-6.207-13.762-10.465-35.056-8.987-56.845c3.337-1.142,9.098,4.36,14,8
		c4.431,3.29,8.801,7.876,14,11c43.933,26.397,112.693,10.53,133-26C-232.851,328.483-218.589,265.618-321.699,226.193z"/>
	<linearGradient id="SVGID_16_" gradientUnits="userSpaceOnUse" x1="-501.7358" y1="330.6421" x2="-161.7822" y2="335.2603">
		<stop  offset="0.069" style="stop-color:#424242"/>
		<stop  offset="1" style="stop-color:#878787"/>
	</linearGradient>
	<path fill-rule="evenodd" clip-rule="evenodd" fill="url(#SVGID_16_)" d="M-371.698,336.193c6.093,15.784,27.341,23.499,47,18
		c15.004-4.197,21.781-19.779,26-33c5.689,4.55,4.705,45.989,4,57c-31.506,11.732-64.348,7.188-87-9
		c-15.632-11.171-32.174-23.149-31-47c1.064-21.62,27.132-38.536,51-41c22.05-2.277,57.88,6.447,56.81,23.845
		C-308.388,361.86-355.651,350.696-371.698,336.193z"/>
	<linearGradient id="SVGID_17_" gradientUnits="userSpaceOnUse" x1="-503.5151" y1="461.6357" x2="-163.5615" y2="466.2539">
		<stop  offset="0.069" style="stop-color:#424242"/>
		<stop  offset="1" style="stop-color:#878787"/>
	</linearGradient>
	<path fill-rule="evenodd" clip-rule="evenodd" fill="url(#SVGID_17_)" d="M-483.878,377.487
		c20.89,13.555,42.916,27.512,66.056,47.943c33.368,29.462,64.991,54.336,61.125,120.763c-36.748,11.571-96.222-39.866-103-48
		C-484.512,468.417-486.792,431.452-483.878,377.487z"/>
	<linearGradient id="SVGID_18_" gradientUnits="userSpaceOnUse" x1="-503.502" y1="460.6592" x2="-163.5483" y2="465.2773">
		<stop  offset="0.069" style="stop-color:#424242"/>
		<stop  offset="1" style="stop-color:#878787"/>
	</linearGradient>
	<path fill-rule="evenodd" clip-rule="evenodd" fill="url(#SVGID_18_)" d="M-339.699,547.193
		c-0.35-65.296,30.139-93.092,61.445-120.697c24.141-21.286,47.84-33.882,69.252-49.009c0.852-0.185-3.17,76.959-16.697,103.706
		c-10.35,20.464-37.58,45.737-57,58C-295.613,547.348-318.421,554.674-339.699,547.193z"/>
</g>
<path fill-rule="evenodd" clip-rule="evenodd" fill="none" d="M-631.704,406.676c-0.203,3.19,22.909,244.848,244.866,263.189
	c221.957,18.341,310.9-155.372,309.913-240.838"/>
<text transform="matrix(0.2377 0.9713 -0.9713 0.2377 -625.7354 442.5215)"><tspan x="0" y="0" fill="#4F4F4F" font-family="'Nyala-Regular'" font-size="51"> </tspan><tspan x="12.611" y="-0.011" fill="#4F4F4F" font-family="'Nyala-Regular'" font-size="51" rotate="-1.88"> </tspan><tspan x="25.238" y="-0.436" fill="#4F4F4F" font-family="'Nyala-Regular'" font-size="51" rotate="-3.755"> </tspan><tspan x="37.821" y="-1.273" fill="#4F4F4F" font-family="'Nyala-Regular'" font-size="51" rotate="-5.653"> </tspan><tspan x="50.394" y="-2.527" fill="#4F4F4F" font-family="'Nyala-Regular'" font-size="51" rotate="-7.602"> </tspan><tspan x="62.954" y="-4.215" fill="#4F4F4F" font-family="'Nyala-Regular'" font-size="51" rotate="-9.62"> </tspan><tspan x="75.471" y="-6.349" fill="#4F4F4F" font-family="'Nyala-Regular'" font-size="51" rotate="-11.719"> </tspan><tspan x="87.919" y="-8.944" fill="#4F4F4F" font-family="'Nyala-Regular'" font-size="51" rotate="-13.908"> </tspan><tspan x="100.314" y="-12.029" fill="#4F4F4F" font-family="'Nyala-Regular'" font-size="51" rotate="-16.205"> </tspan><tspan x="112.613" y="-15.62" fill="#4F4F4F" font-family="'Nyala-Regular'" font-size="51" rotate="-18.612"> </tspan><tspan x="124.779" y="-19.735" fill="#4F4F4F" font-family="'Nyala-Regular'" font-size="51" rotate="-21.135"> </tspan><tspan x="136.805" y="-24.404" fill="#4F4F4F" font-family="'Nyala-Regular'" font-size="51" rotate="-23.782"> </tspan><tspan x="148.612" y="-29.632" fill="#4F4F4F" font-family="'Nyala-Regular'" font-size="51" rotate="-26.543"> </tspan><tspan x="160.208" y="-35.45" fill="#4F4F4F" font-family="'Nyala-Regular'" font-size="51" rotate="-29.424"> </tspan><tspan x="171.546" y="-41.874" fill="#4F4F4F" font-family="'Nyala-Regular'" font-size="51" rotate="-32.418"> </tspan><tspan x="182.533" y="-48.884" fill="#4F4F4F" font-family="'Nyala-Regular'" font-size="51" rotate="-35.5"> </tspan><tspan x="193.157" y="-56.501" fill="#4F4F4F" font-family="'Nyala-Regular'" font-size="51" rotate="-38.661"> </tspan><tspan x="203.385" y="-64.724" fill="#4F4F4F" font-family="'Nyala-Regular'" font-size="51" rotate="-41.883"> </tspan><tspan x="213.117" y="-73.493" fill="#4F4F4F" font-family="'Nyala-Regular'" font-size="51" rotate="-45.123"> </tspan><tspan x="223.148" y="-83.151" fill="#4F4F4F" font-family="'Nyala-Regular'" font-size="51" rotate="-50.571">A</tspan><tspan x="242.852" y="-107.288" fill="#4F4F4F" font-family="'Nyala-Regular'" font-size="51" rotate="-58.332">G</tspan><tspan x="259.784" y="-135.764" fill="#4F4F4F" font-family="'Nyala-Regular'" font-size="51" rotate="-63.557"> </tspan><tspan x="265.991" y="-147.768" fill="#4F4F4F" font-family="'Nyala-Regular'" font-size="51" rotate="-67.888">R</tspan><tspan x="276.448" y="-174.198" fill="#4F4F4F" font-family="'Nyala-Regular'" font-size="51" rotate="-72.458">I</tspan><tspan x="280.746" y="-186.96" fill="#4F4F4F" font-family="'Nyala-Regular'" font-size="51" rotate="-74.869">T</tspan><tspan x="287.913" y="-214.388" fill="#4F4F4F" font-family="'Nyala-Regular'" font-size="51" rotate="-78.118"> </tspan><tspan x="290.957" y="-227.397" fill="#4F4F4F" font-family="'Nyala-Regular'" font-size="51" rotate="-82.04">H</tspan><tspan x="295.476" y="-260.942" fill="#4F4F4F" font-family="'Nyala-Regular'" font-size="51" rotate="-87.937">A</tspan><tspan x="296.504" y="-291.514" fill="#4F4F4F" font-family="'Nyala-Regular'" font-size="51" rotate="-94.114">C</tspan><tspan x="294.06" y="-323.11" fill="#4F4F4F" font-family="'Nyala-Regular'" font-size="51" rotate="-100.565">K</tspan><tspan x="288.356" y="-351.633" fill="#4F4F4F" font-family="'Nyala-Regular'" font-size="51" rotate="-105.189"> </tspan></text>
<polygon fill-rule="evenodd" clip-rule="evenodd" fill="#FBF9DA" points="844.283,133.613 872.346,239.515 953.709,255.988 
	864.597,273.094 844.283,378.365 832.31,273.094 734.854,255.988 834.893,236.932 "/>
</svg>
