<?xml version="1.0" encoding="utf-8"?>
<!-- Generator: Adobe Illustrator 15.1.0, SVG Export Plug-In . SVG Version: 6.00 Build 0)  -->
<!DOCTYPE svg PUBLIC "-//W3C//DTD SVG 1.1//EN" "http://www.w3.org/Graphics/SVG/1.1/DTD/svg11.dtd">
<svg version="1.1" id="Layer_1" xmlns="http://www.w3.org/2000/svg" xmlns:xlink="http://www.w3.org/1999/xlink" x="0px" y="0px"
	 width="720px" height="720px" viewBox="0 0 720 720" enable-background="new 0 0 720 720" xml:space="preserve">
<g>
	<linearGradient id="SVGID_1_" gradientUnits="userSpaceOnUse" x1="81.9463" y1="1312.252" x2="641.4129" y2="825.7593">
		<stop  offset="0.1264" style="stop-color:#CCB42D"/>
		<stop  offset="1" style="stop-color:#A17C2D"/>
	</linearGradient>
	<ellipse fill-rule="evenodd" clip-rule="evenodd" fill="url(#SVGID_1_)" cx="330.611" cy="1096.02" rx="309.694" ry="307.654"/>
	<linearGradient id="SVGID_2_" gradientUnits="userSpaceOnUse" x1="78.9546" y1="1294.9541" x2="618.7504" y2="825.5665">
		<stop  offset="0.0402" style="stop-color:#F8EE55"/>
		<stop  offset="0.3448" style="stop-color:#FBF39B"/>
		<stop  offset="0.5172" style="stop-color:#FBF4A1"/>
		<stop  offset="0.5175" style="stop-color:#FBF49F"/>
		<stop  offset="0.5192" style="stop-color:#FAF39A"/>
		<stop  offset="0.523" style="stop-color:#FAF398"/>
		<stop  offset="0.7759" style="stop-color:#F7EC57"/>
		<stop  offset="0.977" style="stop-color:#A17C2D"/>
	</linearGradient>
	<circle fill-rule="evenodd" clip-rule="evenodd" fill="url(#SVGID_2_)" cx="318.876" cy="1086.326" r="297.959"/>
	<linearGradient id="SVGID_3_" gradientUnits="userSpaceOnUse" x1="123.4224" y1="1253.8135" x2="564.3172" y2="870.4267">
		<stop  offset="0.1264" style="stop-color:#CCB42D"/>
		<stop  offset="1" style="stop-color:#A17C2D"/>
	</linearGradient>
	<path fill-rule="evenodd" clip-rule="evenodd" fill="url(#SVGID_3_)" d="M562.754,1083.409
		c0,134.408-108.961,243.369-243.368,243.369c-134.408,0-243.367-108.961-243.367-243.369
		c0-134.406,108.959-243.367,243.367-243.367C453.793,840.042,562.754,949.003,562.754,1083.409z"/>
	<linearGradient id="SVGID_4_" gradientUnits="userSpaceOnUse" x1="146.5923" y1="1260.0674" x2="564.2343" y2="896.9005">
		<stop  offset="0" style="stop-color:#8A5A24"/>
		<stop  offset="0.1609" style="stop-color:#CCB42D"/>
		<stop  offset="0.2874" style="stop-color:#F8EE55"/>
		<stop  offset="0.4253" style="stop-color:#FBF4A1"/>
		<stop  offset="0.4486" style="stop-color:#FAF291"/>
		<stop  offset="0.4826" style="stop-color:#F9F07E"/>
		<stop  offset="0.5219" style="stop-color:#F8EE6E"/>
		<stop  offset="0.5691" style="stop-color:#F7ED61"/>
		<stop  offset="0.632" style="stop-color:#F7ED59"/>
		<stop  offset="0.7759" style="stop-color:#F7EC57"/>
		<stop  offset="1" style="stop-color:#A17C2D"/>
	</linearGradient>
	<circle fill-rule="evenodd" clip-rule="evenodd" fill="url(#SVGID_4_)" cx="332.221" cy="1098.651" r="230.533"/>
	<g>
		<linearGradient id="SVGID_5_" gradientUnits="userSpaceOnUse" x1="503.7148" y1="998.9287" x2="175.371" y2="1029.8446">
			<stop  offset="0.1264" style="stop-color:#CCB42D"/>
			<stop  offset="0.408" style="stop-color:#A17C2D"/>
		</linearGradient>
		<path fill-rule="evenodd" clip-rule="evenodd" fill="url(#SVGID_5_)" d="M396.317,1077.619c5.045-36.884,2.418-68.714-19-87
			c-33.195-28.342-105.037-18.735-119,21c-10.008,28.481-1.408,69.658,3,102c-11.293-5.295-51.483-35.657-59-45
			c-22.893-28.452-20.94-76.727,0-103c28.082-35.234,96.564-50.317,151-28c25.785,10.571,55.961,35.434,67,60
			C438.118,1037.23,405.239,1068.804,396.317,1077.619z"/>
		<linearGradient id="SVGID_6_" gradientUnits="userSpaceOnUse" x1="508.2256" y1="1052.5898" x2="183.647" y2="1083.1512">
			<stop  offset="0.1264" style="stop-color:#CCB42D"/>
			<stop  offset="0.408" style="stop-color:#A17C2D"/>
		</linearGradient>
		<path fill-rule="evenodd" clip-rule="evenodd" fill="url(#SVGID_6_)" d="M356.317,929.619c38.43-3.819,74.756,0.97,92,22
			c16.695,20.36,32.223,64.868,21,98c-3.279,9.685-45.473,44.955-56,53c-26.549,20.287-77.48,62.461-83,104
			c-7.264-46.866-43.225-64.671-52.012-84.155c-6.207-13.762-10.465-35.056-8.987-56.845c3.337-1.142,9.098,4.36,14,8
			c4.431,3.29,8.801,7.876,14,11c43.933,26.397,112.693,10.53,133-26C445.165,1031.909,459.427,969.044,356.317,929.619z"/>
		<linearGradient id="SVGID_7_" gradientUnits="userSpaceOnUse" x1="504.8438" y1="1020.3369" x2="177.6426" y2="1051.1453">
			<stop  offset="0.1264" style="stop-color:#CCB42D"/>
			<stop  offset="0.408" style="stop-color:#A17C2D"/>
		</linearGradient>
		<path fill-rule="evenodd" clip-rule="evenodd" fill="url(#SVGID_7_)" d="M306.318,1039.619c6.093,15.784,27.341,23.499,47,18
			c15.004-4.197,21.781-19.779,26-33c5.689,4.55,4.705,45.989,4,57c-31.506,11.732-64.348,7.188-87-9
			c-15.632-11.171-32.174-23.149-31-47c1.064-21.62,27.132-38.536,51-41c22.05-2.276,57.88,6.447,56.81,23.845
			C369.628,1065.286,322.365,1054.122,306.318,1039.619z"/>
		<linearGradient id="SVGID_8_" gradientUnits="userSpaceOnUse" x1="512.8643" y1="1141.6377" x2="189.0357" y2="1172.1284">
			<stop  offset="0.1264" style="stop-color:#CCB42D"/>
			<stop  offset="0.408" style="stop-color:#A17C2D"/>
		</linearGradient>
		<path fill-rule="evenodd" clip-rule="evenodd" fill="url(#SVGID_8_)" d="M194.138,1080.913
			c20.89,13.555,42.916,27.512,66.056,47.943c33.368,29.462,64.991,54.336,61.125,120.763c-36.748,11.571-96.222-39.866-103-48
			C193.504,1171.843,191.225,1134.878,194.138,1080.913z"/>
		<linearGradient id="SVGID_9_" gradientUnits="userSpaceOnUse" x1="522.6836" y1="1157.1445" x2="187.886" y2="1188.6681">
			<stop  offset="0.1264" style="stop-color:#CCB42D"/>
			<stop  offset="0.408" style="stop-color:#A17C2D"/>
		</linearGradient>
		<path fill-rule="evenodd" clip-rule="evenodd" fill="url(#SVGID_9_)" d="M338.317,1250.619
			c-0.35-65.296,30.139-93.092,61.445-120.697c24.141-21.286,47.84-33.882,69.252-49.009c0.852-0.185-3.17,76.959-16.697,103.706
			c-10.35,20.464-37.58,45.737-57,58C382.403,1250.773,359.595,1258.1,338.317,1250.619z"/>
	</g>
	<path fill-rule="evenodd" clip-rule="evenodd" fill="none" d="M45.372,1123.922c0,3.196,38.354,242.908,261.027,247.17
		s300.448-174.729,294.055-259.962"/>
	<text transform="matrix(0.2987 0.9543 -0.9543 0.2987 53.5967 1159.3184)"><tspan x="0" y="0" font-family="'Nyala-Regular'" font-size="51"> </tspan><tspan x="12.61" y="-0.011" font-family="'Nyala-Regular'" font-size="51" rotate="-1.879"> </tspan><tspan x="25.237" y="-0.436" font-family="'Nyala-Regular'" font-size="51" rotate="-3.755"> </tspan><tspan x="37.821" y="-1.272" font-family="'Nyala-Regular'" font-size="51" rotate="-5.653"> </tspan><tspan x="50.392" y="-2.527" font-family="'Nyala-Regular'" font-size="51" rotate="-7.602"> </tspan><tspan x="62.952" y="-4.215" font-family="'Nyala-Regular'" font-size="51" rotate="-9.62"> </tspan><tspan x="75.47" y="-6.349" font-family="'Nyala-Regular'" font-size="51" rotate="-11.719"> </tspan><tspan x="87.919" y="-8.944" font-family="'Nyala-Regular'" font-size="51" rotate="-13.908"> </tspan><tspan x="100.314" y="-12.029" font-family="'Nyala-Regular'" font-size="51" rotate="-16.204"> </tspan><tspan x="112.613" y="-15.619" font-family="'Nyala-Regular'" font-size="51" rotate="-18.612"> </tspan><tspan x="124.778" y="-19.735" font-family="'Nyala-Regular'" font-size="51" rotate="-21.135"> </tspan><tspan x="136.804" y="-24.404" font-family="'Nyala-Regular'" font-size="51" rotate="-23.781"> </tspan><tspan x="148.612" y="-29.631" font-family="'Nyala-Regular'" font-size="51" rotate="-26.542"> </tspan><tspan x="160.208" y="-35.45" font-family="'Nyala-Regular'" font-size="51" rotate="-29.423"> </tspan><tspan x="171.546" y="-41.874" font-family="'Nyala-Regular'" font-size="51" rotate="-32.418"> </tspan><tspan x="182.533" y="-48.884" font-family="'Nyala-Regular'" font-size="51" rotate="-35.499"> </tspan><tspan x="193.157" y="-56.5" fill="#91732C" font-family="'Nyala-Regular'" font-size="51" rotate="-38.66"> </tspan><tspan x="203.385" y="-64.724" fill="#91732C" font-family="'Nyala-Regular'" font-size="51" rotate="-41.883"> </tspan><tspan x="213.117" y="-73.492" fill="#91732C" font-family="'Nyala-Regular'" font-size="51" rotate="-45.122"> </tspan><tspan x="223.148" y="-83.15" fill="#91732C" font-family="'Nyala-Regular'" font-size="51" rotate="-50.571">A</tspan><tspan x="242.851" y="-107.287" fill="#91732C" font-family="'Nyala-Regular'" font-size="51" rotate="-58.332">G</tspan><tspan x="259.784" y="-135.763" fill="#91732C" font-family="'Nyala-Regular'" font-size="51" rotate="-63.557"> </tspan><tspan x="265.991" y="-147.767" fill="#91732C" font-family="'Nyala-Regular'" font-size="51" rotate="-67.887">R</tspan><tspan x="276.449" y="-174.197" fill="#91732C" font-family="'Nyala-Regular'" font-size="51" rotate="-72.457">I</tspan><tspan x="280.747" y="-186.958" fill="#91732C" font-family="'Nyala-Regular'" font-size="51" rotate="-74.869">T</tspan><tspan x="287.909" y="-214.368" fill="#91732C" font-family="'Nyala-Regular'" font-size="51" rotate="-78.115"> </tspan><tspan x="290.959" y="-227.396" fill="#91732C" font-family="'Nyala-Regular'" font-size="51" rotate="-82.039">H</tspan><tspan x="295.477" y="-260.94" fill="#91732C" font-family="'Nyala-Regular'" font-size="51" rotate="-87.937">A</tspan><tspan x="296.505" y="-291.513" fill="#91732C" font-family="'Nyala-Regular'" font-size="51" rotate="-94.114">C</tspan><tspan x="294.061" y="-323.108" fill="#91732C" font-family="'Nyala-Regular'" font-size="51" rotate="-100.565">K</tspan><tspan x="288.358" y="-351.632" fill="#91732C" font-family="'Nyala-Regular'" font-size="51" rotate="-105.188"> </tspan></text>
</g>
<g>
	<linearGradient id="SVGID_10_" gradientUnits="userSpaceOnUse" x1="110.3745" y1="566.2061" x2="669.8412" y2="79.7133">
		<stop  offset="0.1379" style="stop-color:#ADADAD"/>
		<stop  offset="1" style="stop-color:#646464"/>
	</linearGradient>
	<ellipse fill-rule="evenodd" clip-rule="evenodd" fill="url(#SVGID_10_)" cx="359.04" cy="349.975" rx="309.694" ry="307.654"/>
	<linearGradient id="SVGID_11_" gradientUnits="userSpaceOnUse" x1="-125.3066" y1="329.52" x2="807.7188" y2="350.7671">
		<stop  offset="0" style="stop-color:#292929"/>
		<stop  offset="0.1552" style="stop-color:#ADADAD"/>
		<stop  offset="0.3678" style="stop-color:#E5E5E5"/>
		<stop  offset="0.4713" style="stop-color:#F0F0F0"/>
		<stop  offset="0.4812" style="stop-color:#EDEDED"/>
		<stop  offset="0.5324" style="stop-color:#E6E6E6"/>
		<stop  offset="0.6494" style="stop-color:#E4E4E4"/>
		<stop  offset="1" style="stop-color:#646464"/>
	</linearGradient>
	<circle fill-rule="evenodd" clip-rule="evenodd" fill="url(#SVGID_11_)" cx="347.305" cy="340.281" r="297.959"/>
	<linearGradient id="SVGID_12_" gradientUnits="userSpaceOnUse" x1="576.9297" y1="336.1138" x2="-99.2835" y2="339.8091">
		<stop  offset="0.1379" style="stop-color:#ADADAD"/>
		<stop  offset="1" style="stop-color:#424242"/>
	</linearGradient>
	<circle fill-rule="evenodd" clip-rule="evenodd" fill="url(#SVGID_12_)" cx="347.815" cy="337.364" r="243.368"/>
	<linearGradient id="SVGID_13_" gradientUnits="userSpaceOnUse" x1="174.0972" y1="517.7188" x2="591.7393" y2="154.5517">
		<stop  offset="0" style="stop-color:#292929"/>
		<stop  offset="0.0029" style="stop-color:#2F2F2F"/>
		<stop  offset="0.0251" style="stop-color:#555555"/>
		<stop  offset="0.0481" style="stop-color:#757575"/>
		<stop  offset="0.0719" style="stop-color:#8E8E8E"/>
		<stop  offset="0.0968" style="stop-color:#9F9F9F"/>
		<stop  offset="0.1235" style="stop-color:#AAAAAA"/>
		<stop  offset="0.1552" style="stop-color:#ADADAD"/>
		<stop  offset="0.3678" style="stop-color:#E5E5E5"/>
		<stop  offset="0.4713" style="stop-color:#F0F0F0"/>
		<stop  offset="0.4812" style="stop-color:#EDEDED"/>
		<stop  offset="0.5324" style="stop-color:#E6E6E6"/>
		<stop  offset="0.6494" style="stop-color:#E4E4E4"/>
		<stop  offset="1" style="stop-color:#646464"/>
	</linearGradient>
	<circle fill-rule="evenodd" clip-rule="evenodd" fill="url(#SVGID_13_)" cx="359.726" cy="356.302" r="230.533"/>
	<g>
		<linearGradient id="SVGID_14_" gradientUnits="userSpaceOnUse" x1="204.9141" y1="272.9136" x2="544.867" y2="277.5317">
			<stop  offset="0.069" style="stop-color:#424242"/>
			<stop  offset="1" style="stop-color:#878787"/>
		</linearGradient>
		<path fill-rule="evenodd" clip-rule="evenodd" fill="url(#SVGID_14_)" d="M424.746,331.574c5.045-36.884,2.418-68.714-19-87
			c-33.195-28.342-105.037-18.735-119,21c-10.008,28.481-1.408,69.658,3,102c-11.293-5.295-51.483-35.657-59-45
			c-22.893-28.453-20.94-76.727,0-103c28.082-35.234,96.564-50.318,151-28c25.785,10.571,55.961,35.434,67,60
			C466.547,291.186,433.668,322.759,424.746,331.574z"/>
		<linearGradient id="SVGID_15_" gradientUnits="userSpaceOnUse" x1="204.2871" y1="319.0342" x2="544.2416" y2="323.6523">
			<stop  offset="0.069" style="stop-color:#424242"/>
			<stop  offset="1" style="stop-color:#878787"/>
		</linearGradient>
		<path fill-rule="evenodd" clip-rule="evenodd" fill="url(#SVGID_15_)" d="M384.746,183.574c38.43-3.819,74.756,0.969,92,22
			c16.695,20.361,32.223,64.869,21,98c-3.279,9.685-45.473,44.955-56,53c-26.549,20.287-77.48,62.461-83,104
			c-7.264-46.866-43.225-64.671-52.012-84.155c-6.207-13.762-10.465-35.056-8.987-56.845c3.337-1.142,9.098,4.36,14,8
			c4.431,3.29,8.801,7.876,14,11c43.933,26.397,112.693,10.53,133-26C473.594,285.864,487.855,222.999,384.746,183.574z"/>
		<linearGradient id="SVGID_16_" gradientUnits="userSpaceOnUse" x1="204.7085" y1="288.0225" x2="544.6621" y2="292.6406">
			<stop  offset="0.069" style="stop-color:#424242"/>
			<stop  offset="1" style="stop-color:#878787"/>
		</linearGradient>
		<path fill-rule="evenodd" clip-rule="evenodd" fill="url(#SVGID_16_)" d="M334.747,293.574c6.093,15.784,27.341,23.499,47,18
			c15.004-4.197,21.781-19.779,26-33c5.689,4.55,4.705,45.989,4,57c-31.506,11.732-64.348,7.188-87-9
			c-15.632-11.171-32.174-23.149-31-47c1.064-21.62,27.132-38.536,51-41c22.05-2.277,57.88,6.447,56.81,23.845
			C398.057,319.241,350.793,308.077,334.747,293.574z"/>
		<linearGradient id="SVGID_17_" gradientUnits="userSpaceOnUse" x1="202.9292" y1="419.0156" x2="542.8841" y2="423.6338">
			<stop  offset="0.069" style="stop-color:#424242"/>
			<stop  offset="1" style="stop-color:#878787"/>
		</linearGradient>
		<path fill-rule="evenodd" clip-rule="evenodd" fill="url(#SVGID_17_)" d="M222.566,334.868
			c20.89,13.555,42.916,27.512,66.056,47.943c33.368,29.462,64.991,54.336,61.125,120.763c-36.748,11.571-96.222-39.866-103-48
			C221.933,425.798,219.653,388.833,222.566,334.868z"/>
		<linearGradient id="SVGID_18_" gradientUnits="userSpaceOnUse" x1="202.9429" y1="418.0391" x2="542.8965" y2="422.6572">
			<stop  offset="0.069" style="stop-color:#424242"/>
			<stop  offset="1" style="stop-color:#878787"/>
		</linearGradient>
		<path fill-rule="evenodd" clip-rule="evenodd" fill="url(#SVGID_18_)" d="M366.746,504.574
			c-0.35-65.296,30.139-93.092,61.445-120.697c24.141-21.286,47.84-33.882,69.252-49.009c0.852-0.185-3.17,76.959-16.697,103.706
			c-10.35,20.464-37.58,45.737-57,58C410.832,504.729,388.023,512.055,366.746,504.574z"/>
	</g>
	<path fill-rule="evenodd" clip-rule="evenodd" fill="none" d="M74.741,364.057c-0.203,3.19,22.909,244.848,244.866,263.189
		c221.957,18.341,310.9-155.372,309.912-240.838"/>
	<text transform="matrix(0.2377 0.9713 -0.9713 0.2377 80.7095 399.9023)"><tspan x="0" y="0" fill="#4F4F4F" font-family="'Nyala-Regular'" font-size="51"> </tspan><tspan x="12.611" y="-0.011" fill="#4F4F4F" font-family="'Nyala-Regular'" font-size="51" rotate="-1.88"> </tspan><tspan x="25.238" y="-0.436" fill="#4F4F4F" font-family="'Nyala-Regular'" font-size="51" rotate="-3.755"> </tspan><tspan x="37.821" y="-1.273" fill="#4F4F4F" font-family="'Nyala-Regular'" font-size="51" rotate="-5.653"> </tspan><tspan x="50.394" y="-2.527" fill="#4F4F4F" font-family="'Nyala-Regular'" font-size="51" rotate="-7.602"> </tspan><tspan x="62.954" y="-4.215" fill="#4F4F4F" font-family="'Nyala-Regular'" font-size="51" rotate="-9.62"> </tspan><tspan x="75.471" y="-6.349" fill="#4F4F4F" font-family="'Nyala-Regular'" font-size="51" rotate="-11.719"> </tspan><tspan x="87.919" y="-8.944" fill="#4F4F4F" font-family="'Nyala-Regular'" font-size="51" rotate="-13.908"> </tspan><tspan x="100.314" y="-12.029" fill="#4F4F4F" font-family="'Nyala-Regular'" font-size="51" rotate="-16.205"> </tspan><tspan x="112.613" y="-15.62" fill="#4F4F4F" font-family="'Nyala-Regular'" font-size="51" rotate="-18.612"> </tspan><tspan x="124.779" y="-19.735" fill="#4F4F4F" font-family="'Nyala-Regular'" font-size="51" rotate="-21.135"> </tspan><tspan x="136.805" y="-24.404" fill="#4F4F4F" font-family="'Nyala-Regular'" font-size="51" rotate="-23.782"> </tspan><tspan x="148.613" y="-29.631" fill="#4F4F4F" font-family="'Nyala-Regular'" font-size="51" rotate="-26.543"> </tspan><tspan x="160.208" y="-35.45" fill="#4F4F4F" font-family="'Nyala-Regular'" font-size="51" rotate="-29.424"> </tspan><tspan x="171.546" y="-41.874" fill="#4F4F4F" font-family="'Nyala-Regular'" font-size="51" rotate="-32.418"> </tspan><tspan x="182.533" y="-48.884" fill="#4F4F4F" font-family="'Nyala-Regular'" font-size="51" rotate="-35.5"> </tspan><tspan x="193.157" y="-56.5" fill="#4F4F4F" font-family="'Nyala-Regular'" font-size="51" rotate="-38.661"> </tspan><tspan x="203.385" y="-64.724" fill="#4F4F4F" font-family="'Nyala-Regular'" font-size="51" rotate="-41.883"> </tspan><tspan x="213.117" y="-73.493" fill="#4F4F4F" font-family="'Nyala-Regular'" font-size="51" rotate="-45.123"> </tspan><tspan x="223.148" y="-83.151" fill="#4F4F4F" font-family="'Nyala-Regular'" font-size="51" rotate="-50.571">A</tspan><tspan x="242.852" y="-107.288" fill="#4F4F4F" font-family="'Nyala-Regular'" font-size="51" rotate="-58.332">G</tspan><tspan x="259.784" y="-135.764" fill="#4F4F4F" font-family="'Nyala-Regular'" font-size="51" rotate="-63.557"> </tspan><tspan x="265.991" y="-147.768" fill="#4F4F4F" font-family="'Nyala-Regular'" font-size="51" rotate="-67.888">R</tspan><tspan x="276.448" y="-174.198" fill="#4F4F4F" font-family="'Nyala-Regular'" font-size="51" rotate="-72.458">I</tspan><tspan x="280.746" y="-186.96" fill="#4F4F4F" font-family="'Nyala-Regular'" font-size="51" rotate="-74.869">T</tspan><tspan x="287.913" y="-214.388" fill="#4F4F4F" font-family="'Nyala-Regular'" font-size="51" rotate="-78.118"> </tspan><tspan x="290.957" y="-227.398" fill="#4F4F4F" font-family="'Nyala-Regular'" font-size="51" rotate="-82.04">H</tspan><tspan x="295.476" y="-260.942" fill="#4F4F4F" font-family="'Nyala-Regular'" font-size="51" rotate="-87.937">A</tspan><tspan x="296.504" y="-291.515" fill="#4F4F4F" font-family="'Nyala-Regular'" font-size="51" rotate="-94.114">C</tspan><tspan x="294.056" y="-323.14" fill="#4F4F4F" font-family="'Nyala-Regular'" font-size="51" rotate="-100.572">K</tspan><tspan x="288.356" y="-351.633" fill="#4F4F4F" font-family="'Nyala-Regular'" font-size="51" rotate="-105.189"> </tspan></text>
</g>
</svg>
